<?xml version="1.0" encoding="utf-8"?>
<!-- Generator: Adobe Illustrator 21.1.0, SVG Export Plug-In . SVG Version: 6.00 Build 0)  -->
<svg version="1.1" id="Layer_1" xmlns="http://www.w3.org/2000/svg" xmlns:xlink="http://www.w3.org/1999/xlink" x="0px" y="0px"
	 viewBox="0 0 358 304" style="enable-background:new 0 0 358 304;" xml:space="preserve">
<style type="text/css">
	.st0{fill:#FFFFFF;}
	.st1{fill:#4A555F;}
	.st2{fill:#F68F6F;}
	.st3{fill:#71CDE1;}
	.st4{fill:#FFD552;}
</style>
<g>
	<g>
		<g>
			<path class="st0" d="M289.8,186.1h6.3c5.8,0,10.6-4.7,10.6-10.6c0-2.9-1.2-5.6-3.1-7.5s-4.6-3.1-7.5-3.1h-6.3V186.1z"/>
		</g>
	</g>
	<g>
		<g>
			<path class="st0" d="M258.6,90.5H83c-9.5,0-17.2,7.7-17.2,17.2v158.2c0.6,8.9,8,15.9,17,15.9h175.8c17.3,0,31.2-14,31.2-31.2
				v-94.5v-34.3C289.8,104.5,275.9,90.5,258.6,90.5z"/>
		</g>
	</g>
	<g>
		<g>
			<path class="st1" d="M291.7,156.1H288c0-16.2-13.2-29.4-29.4-29.4H85.2c-0.5,0.1-1.1,0-1.6,0c-0.2,0-0.4,0-0.7,0
				c-10.5,0-19.1-8.5-19.1-18.9c0-10.5,8.5-19.1,19.1-19.1h175.6c18.2,0,33.1,14.8,33.1,33.1v34.3H291.7z M85,123h173.6
				c12.8,0,23.9,7.3,29.4,18v-19.2c0-16.2-13.2-29.4-29.4-29.4H83c-8.5,0-15.4,6.9-15.4,15.4c0,8.4,6.9,15.3,15.4,15.3
				c0.3,0,0.5,0,0.8,0c0.4,0,0.8,0,1.1,0L85,123z"/>
		</g>
	</g>
	<g>
		<g>
			<path class="st2" d="M283.7,128.5c-6.6-6.1-15.5-9.8-25.1-9.8H84.8h-0.4c-0.1,0-0.3,0-0.4,0c-0.3,0-0.6,0-1,0
				c-6.1,0-11.1-4.9-11.1-11s5-11.1,11.1-11.1h175.6c13.9,0,25.1,11.3,25.1,25.1L283.7,128.5L283.7,128.5z"/>
		</g>
	</g>
	<g>
		<g>
			<path class="st2" d="M283.7,121.8v6.7c-6.6-6.1-15.5-9.8-25.1-9.8H84.8h-0.4c-0.1,0-0.3,0-0.4,0c-0.3,0-0.6,0-1,0
				c-6.1,0-11.1-4.9-11.1-11s5-11.1,11.1-11.1h175.6C272.5,96.6,283.7,107.9,283.7,121.8z"/>
		</g>
	</g>
	<g>
		<g>
			<path class="st1" d="M258.6,283.7H82.8c-9.9,0-18.2-7.7-18.9-17.6V266V107.8h3.7c0,8.4,6.9,15.3,15.4,15.3c0.3,0,0.5,0,0.8,0
				c0.4,0,0.8,0,1.1,0h0.2h173.5c18.2,0,33.1,14.8,33.1,33.1v94.5C291.7,268.9,276.8,283.7,258.6,283.7z M67.6,265.9
				c0.6,7.9,7.3,14.1,15.2,14.1h175.8c16.2,0,29.4-13.2,29.4-29.4v-94.5c0-16.2-13.2-29.4-29.4-29.4H85.2c-0.5,0.1-1.1,0-1.6,0
				c-0.2,0-0.4,0-0.7,0c-6.3,0-11.9-3.1-15.4-7.8L67.6,265.9z"/>
		</g>
	</g>
	<g>
		<g>
			<path class="st3" d="M82.8,275.8c-5.7,0-10.4-4.4-10.9-10V128.2C75.2,130,79,131,83,131c0.2,0,0.3,0,0.5,0c0.3,0,0.6,0,0.9,0
				c0.3,0,0.7,0,1,0h173.2c13.9,0,25.1,11.3,25.1,25.1v94.5c0,13.9-11.3,25.1-25.1,25.1L82.8,275.8z"/>
		</g>
	</g>
	<g>
		<g>
			<path class="st0" d="M84.6,131h-0.1c-0.3,0-0.6,0-0.9,0c-0.2,0-0.3,0-0.5,0c-4,0-7.8-1-11.1-2.8v137.6c0.5,5.6,5.3,10,10.9,10
				h1.8L84.6,131z"/>
		</g>
	</g>
	<g>
		<g>
			<path class="st2" d="M283.7,221.1v11.7h-48.1c-6.3,0-11.4-5.1-11.4-11.4c0-0.5,0-1,0.1-1.5c2,0.8,4.1,1.2,6.3,1.2L283.7,221.1z"
				/>
		</g>
	</g>
	<g>
		<g>
			<path class="st0" d="M220.2,90c0,1.8-0.1,3.5-0.3,5.2c-0.1,0.5-0.1,1-0.2,1.5c-1,6.7-3.6,12.8-7.4,18c-1,1.4-2.1,2.8-3.3,4.1
				h-62.3c-1.2-1.3-2.3-2.6-3.3-4.1c-3.8-5.2-6.4-11.4-7.4-18c-0.1-0.5-0.1-1-0.2-1.5c-0.2-1.7-0.3-3.4-0.3-5.2
				c0-23.4,19-42.4,42.4-42.4C201.2,47.5,220.2,66.5,220.2,90z"/>
		</g>
	</g>
	<g>
		<g>
			<path class="st0" d="M220.2,100.3c0,6.6-1.5,12.9-4.2,18.5h-76.4c-2.7-5.6-4.2-11.9-4.2-18.5c0-1.2,0-2.4,0.2-3.6
				c0-0.5,0.1-1,0.2-1.5c0.9-7.2,3.5-13.9,7.6-19.5c7.7-10.8,20.3-17.8,34.5-17.8s26.9,7,34.5,17.8c4,5.6,6.7,12.3,7.6,19.5
				c0.1,0.5,0.1,1,0.2,1.5C220.2,97.8,220.2,99,220.2,100.3z"/>
		</g>
	</g>
	<g>
		<g>
			<path class="st3" d="M215.4,90.5c0,1.5-0.1,3.1-0.3,4.6c-0.1,0.5-0.1,1-0.2,1.6c-1.4,8.8-5.9,16.5-12.2,22.1H153
				c-6.4-5.6-10.8-13.4-12.2-22.1c-0.1-0.5-0.2-1-0.2-1.6c-0.2-1.5-0.3-3-0.3-4.6c0-5.3,1.1-10.3,3.1-14.9
				c5.8-13.4,19.1-22.7,34.5-22.7c15.5,0,28.8,9.3,34.5,22.7C214.3,80.2,215.4,85.2,215.4,90.5z"/>
		</g>
	</g>
	<g>
		<g>
			<path class="st4" d="M215.4,99.7c0,5.3-1.1,10.4-3.1,15c-0.6,1.4-1.3,2.8-2.1,4.1h-64.8c-0.8-1.3-1.5-2.7-2.1-4.1
				c-2-4.6-3.1-9.7-3.1-15c0-1,0-2,0.1-3c0-0.5,0.1-1,0.2-1.6c2.3-18.6,18.1-33,37.3-33s35.1,14.4,37.3,33c0.1,0.5,0.1,1,0.2,1.6
				C215.4,97.6,215.4,98.7,215.4,99.7z"/>
		</g>
	</g>
	<g>
		<g>
			<path class="st1" d="M211.8,119.7l-3.2-1.9c0.7-1.2,1.4-2.5,2-3.9c2-4.5,3-9.3,3-14.3c0-1,0-2-0.1-2.9c0-0.5-0.1-1-0.2-1.5
				c-2.2-17.9-17.4-31.4-35.5-31.4s-33.3,13.5-35.5,31.4c-0.1,0.5-0.1,1-0.1,1.5c-0.1,0.9-0.1,1.9-0.1,2.9c0,5,1,9.8,3,14.3
				c0.6,1.3,1.2,2.6,2,3.9l-3.2,1.9c-0.8-1.4-1.5-2.8-2.2-4.3c-2.2-5-3.3-10.3-3.3-15.7c0-1.1,0-2.2,0.1-3.2c0-0.5,0.1-1,0.2-1.6
				c2.4-19.8,19.2-34.7,39.1-34.7s36.7,14.9,39.1,34.6c0.1,0.5,0.1,1.1,0.2,1.6c0.1,1,0.1,2,0.1,3.2c0,5.5-1.1,10.8-3.3,15.7
				C213.3,116.9,212.6,118.3,211.8,119.7z"/>
		</g>
	</g>
	<g>
		<g>
			<path class="st0" d="M187.3,98.9c1.6-0.3,3-1.1,4-2.1c1.4-1.4,2.3-3.3,2.3-5.5c0-4.3-3.5-7.7-7.7-7.7h-3.2v-7.4h-4.6v7.4h-2.9
				v-7.4h-4.6v7.4h-9.4v5h3.5c0,0,2.1-0.3,2.1,2.1v20.2c0,2.4-2.1,2.1-2.1,2.1h-3.5v1.4h33.4c1.3-1.6,2.1-3.7,2.1-6
				C196.7,103.2,192.5,99,187.3,98.9z M175.1,88.9h5.1c2.5,0,4.6,2,4.6,4.6c0,1.3-0.5,2.4-1.3,3.2s-2,1.3-3.2,1.3h-5.1v-9.1H175.1z
				 M185.8,111.1c-0.9,0.9-2.1,1.4-3.5,1.4h-7.2v-9.9h7.2c2.7,0,4.9,2.2,4.9,4.9C187.2,109,186.7,110.2,185.8,111.1z"/>
		</g>
	</g>
	<g>
		<g>
			<path class="st1" d="M258.6,265.4h-2.3v-3.7h2.3c0.4,0,0.8,0,1.1-0.1l0.4,3.6C259.6,265.4,259.1,265.4,258.6,265.4z M252.6,265.4
				h-3.7v-3.7h3.7V265.4z M245.3,265.4h-3.7v-3.7h3.7V265.4z M237.9,265.4h-3.7v-3.7h3.7V265.4z M230.6,265.4H227v-3.7h3.7v3.7
				H230.6z M223.3,265.4h-3.7v-3.7h3.7V265.4z M216,265.4h-3.7v-3.7h3.7V265.4z M208.7,265.4H205v-3.7h3.7V265.4z M201.3,265.4h-3.7
				v-3.7h3.7V265.4z M194,265.4h-3.7v-3.7h3.7V265.4z M186.7,265.4H183v-3.7h3.7V265.4z M179.4,265.4h-3.7v-3.7h3.7V265.4z
				 M172,265.4h-3.7v-3.7h3.7V265.4z M164.7,265.4H161v-3.7h3.7V265.4z M157.4,265.4h-3.7v-3.7h3.7V265.4z M150.1,265.4h-3.7v-3.7
				h3.7V265.4z M142.7,265.4H139v-3.7h3.7V265.4z M135.4,265.4h-3.7v-3.7h3.7V265.4z M128.1,265.4h-3.7v-3.7h3.7V265.4z
				 M120.8,265.4h-3.7v-3.7h3.7V265.4z M113.5,265.4h-3.7v-3.7h3.7V265.4z M106.1,265.4h-3.7v-3.7h3.7V265.4z M98.8,265.4h-3.7v-3.7
				h3.7V265.4z M91.5,265.4h-3.7v-3.7h3.7V265.4z M84.2,265.4h-3.7v-3.7h3.7V265.4z M76.8,265.4h-3.7v-3.7h3.7V265.4z M69.5,265.4
				h-3.7v-3.7h3.7V265.4z M264.1,264.3l-1.4-3.4c1-0.4,1.9-0.9,2.7-1.6l2.3,2.9C266.6,263.1,265.4,263.8,264.1,264.3z M270.6,259.2
				l-3-2.1c0.6-0.9,1.1-1.8,1.4-2.8l3.5,1.2C272.1,256.8,271.4,258.1,270.6,259.2z M273.3,251.4l-3.7-0.2c0-0.2,0-0.4,0-0.6v-3h3.7
				v3C273.4,250.9,273.4,251.2,273.3,251.4z M273.4,244h-3.7v-3.7h3.7V244z M273.4,236.7h-3.7V233h3.7V236.7z M273.4,229.4h-3.7
				v-3.7h3.7V229.4z M273.4,222h-3.7v-3.7h3.7V222z M273.4,214.7h-3.7V211h3.7V214.7z M273.4,207.4h-3.7v-3.7h3.7V207.4z
				 M273.4,200.1h-3.7v-3.7h3.7V200.1z M273.4,192.7h-3.7V189h3.7V192.7z M273.4,185.4h-3.7v-3.7h3.7V185.4z M273.4,178.1h-3.7v-3.7
				h3.7V178.1z M273.4,170.8h-3.7v-3.7h3.7V170.8z M273.4,163.4h-3.7v-3.7h3.7V163.4z M269.7,156.1L269.7,156.1
				c0-1.1-0.1-2.1-0.4-3.1l3.5-1c0.4,1.3,0.6,2.7,0.6,4.1H269.7z M268,150.2c-0.6-0.9-1.2-1.7-2-2.4l2.4-2.7c1,0.9,2,2,2.7,3.2
				L268,150.2z M263.3,146.1c-0.9-0.4-2-0.8-3-0.9l0.6-3.6c1.4,0.2,2.7,0.6,4,1.2L263.3,146.1z M257,145h-3.7v-3.7h3.7V145z
				 M249.6,145H246v-3.7h3.7v3.7H249.6z M242.3,145h-3.7v-3.7h3.7V145z M235,145h-3.7v-3.7h3.7V145z M227.7,145H224v-3.7h3.7V145z
				 M220.4,145h-3.7v-3.7h3.7V145z M213,145h-3.7v-3.7h3.7V145z M205.7,145H202v-3.7h3.7V145z M198.4,145h-3.7v-3.7h3.7V145z
				 M191.1,145h-3.7v-3.7h3.7V145z M183.7,145H180v-3.7h3.7V145z M176.4,145h-3.7v-3.7h3.7V145z M169.1,145h-3.7v-3.7h3.7V145z
				 M161.8,145h-3.7v-3.7h3.7V145z M154.4,145h-3.7v-3.7h3.7V145z M147.1,145h-3.7v-3.7h3.7V145z M139.8,145h-3.7v-3.7h3.7V145z
				 M132.5,145h-3.7v-3.7h3.7V145z M125.1,145h-3.7v-3.7h3.7V145z M117.8,145h-3.7v-3.7h3.7V145z M110.5,145h-3.7v-3.7h3.7V145z
				 M103.2,145h-3.7v-3.7h3.7V145z M95.9,145h-3.7v-3.7h3.7V145z M88.5,145h-3.7v-3.7h3.7V145z M81.2,145h-3.7v-3.7h3.7V145z
				 M73.9,145h-3.7v-3.7h3.7V145z M66.6,145h-0.7v-3.7h0.7V145z"/>
		</g>
	</g>
	<g>
		<g>
			<path class="st1" d="M296.1,187.9H288v-24.8h8.1c3.3,0,6.4,1.3,8.8,3.6c2.3,2.3,3.6,5.5,3.6,8.8
				C308.6,182.4,303,187.9,296.1,187.9z M291.7,184.3h4.5c4.8,0,8.8-3.9,8.8-8.8c0-2.3-0.9-4.5-2.6-6.2s-3.9-2.6-6.2-2.6h-4.5
				L291.7,184.3L291.7,184.3z"/>
		</g>
	</g>
	<g>
		<g>
			<path class="st2" d="M295.9,180v-9h0.2c1.2,0,2.3,0.5,3.2,1.3c0.8,0.8,1.3,2,1.3,3.2c0,2.5-2,4.5-4.5,4.5H295.9z"/>
		</g>
	</g>
	<g>
		<g>
			<path class="st0" d="M306.7,210.5c0,5.8-4.7,10.6-10.6,10.6h-65.5c-9.7,0-17.5-7.8-17.5-17.5l0,0c0-9.7,7.8-17.5,17.5-17.5h65.5
				c2.9,0,5.6-1.2,7.5-3.1s3.1-4.6,3.1-7.5V210.5z"/>
		</g>
	</g>
	<g>
		<g>
			<path class="st4" d="M230.6,215c-6.3,0-11.4-5.1-11.4-11.4l0,0c0-6.3,5.1-11.4,11.4-11.4h65.5c1.5,0,3-0.2,4.5-0.6v18.9
				c0,2.5-2,4.5-4.5,4.5H230.6z"/>
		</g>
	</g>
	<g>
		<g>
			<path class="st1" d="M296.1,222.9h-65.5c-10.7,0-19.3-8.7-19.3-19.3c0-10.7,8.7-19.3,19.3-19.3h65.5c2.3,0,4.5-0.9,6.2-2.6
				s2.6-3.9,2.6-6.2h3.7v35C308.6,217.4,303,222.9,296.1,222.9z M230.6,187.9c-8.6,0-15.7,7-15.7,15.7s7,15.7,15.7,15.7h65.5
				c4.8,0,8.8-3.9,8.8-8.7v-26.2c-2.3,2.3-5.4,3.6-8.8,3.6L230.6,187.9z"/>
		</g>
	</g>
	<g>
		<g>
			<circle class="st2" cx="235.6" cy="203.3" r="5.8"/>
		</g>
	</g>
	<g>
		<g>
			<polygon class="st2" points="180.8,47.5 173.6,16.3 188.5,16.3 			"/>
		</g>
	</g>
	<g>
		<g>
			<polygon class="st2" points="137.3,66.3 115.3,56 124.7,44.3 			"/>
		</g>
	</g>
	<g>
		<g>
			<polygon class="st2" points="216.9,64.5 238,47.5 242.9,52.4 			"/>
		</g>
	</g>
	<g>
		<g>
			<g>
				<rect x="291.9" y="47" class="st1" width="3.7" height="6.9"/>
			</g>
		</g>
		<g>
			<g>
				<rect x="291.9" y="66.1" class="st1" width="3.7" height="6.9"/>
			</g>
		</g>
		<g>
			<g>
				<rect x="299.8" y="58.2" class="st1" width="6.9" height="3.7"/>
			</g>
		</g>
		<g>
			<g>
				<rect x="280.7" y="58.2" class="st1" width="6.9" height="3.7"/>
			</g>
		</g>
	</g>
	<g>
		<g>
			<g>
				<rect x="33.8" y="206.9" class="st1" width="3.7" height="6.9"/>
			</g>
		</g>
		<g>
			<g>
				<rect x="33.8" y="226" class="st1" width="3.7" height="6.9"/>
			</g>
		</g>
		<g>
			<g>
				<rect x="41.7" y="218.1" class="st1" width="6.9" height="3.7"/>
			</g>
		</g>
		<g>
			<g>
				<rect x="22.7" y="218.1" class="st1" width="6.9" height="3.7"/>
			</g>
		</g>
	</g>
	<g>
		<g>
			<circle class="st3" cx="315.8" cy="144.7" r="4.3"/>
		</g>
	</g>
	<g>
		<g>
			<circle class="st3" cx="20.2" cy="144.7" r="6.7"/>
		</g>
	</g>
	<g>
		<g>
			<circle class="st2" cx="333.6" cy="240.5" r="10.9"/>
		</g>
	</g>
</g>
</svg>
