<?xml version="1.0" encoding="utf-8"?>
<!-- Generator: Adobe Illustrator 21.1.0, SVG Export Plug-In . SVG Version: 6.00 Build 0)  -->
<svg version="1.1" id="Layer_1" xmlns="http://www.w3.org/2000/svg" xmlns:xlink="http://www.w3.org/1999/xlink" x="0px" y="0px"
	 viewBox="0 0 430 299" style="enable-background:new 0 0 430 299;" xml:space="preserve">
<style type="text/css">
	.st0{fill:#4A555F;}
	.st1{fill:#F68F6F;}
	.st2{fill:#FFD552;}
	.st3{fill:#E0E0E0;}
	.st4{fill:#71CDE1;}
	.st5{fill:#FFFFFF;}
</style>
<g>
	<g>
		<g>
			<g>
				<rect x="76" y="84.8" class="st0" width="3.7" height="6.4"/>
			</g>
		</g>
		<g>
			<g>
				<rect x="76" y="102.4" class="st0" width="3.7" height="6.4"/>
			</g>
		</g>
		<g>
			<g>
				<rect x="83.4" y="94.9" class="st0" width="6.4" height="3.7"/>
			</g>
		</g>
		<g>
			<g>
				<rect x="65.8" y="94.9" class="st0" width="6.4" height="3.7"/>
			</g>
		</g>
	</g>
	<g>
		<g>
			<g>
				<rect x="336.4" y="103.6" class="st0" width="3.7" height="6.4"/>
			</g>
		</g>
		<g>
			<g>
				<rect x="336.4" y="121.2" class="st0" width="3.7" height="6.4"/>
			</g>
		</g>
		<g>
			<g>
				<rect x="343.8" y="113.8" class="st0" width="6.4" height="3.7"/>
			</g>
		</g>
		<g>
			<g>
				<rect x="326.3" y="113.8" class="st0" width="6.4" height="3.7"/>
			</g>
		</g>
	</g>
	<g>
		<g>
			<g>
				<rect x="405.9" y="221.7" class="st0" width="3.7" height="6.4"/>
			</g>
		</g>
		<g>
			<g>
				<rect x="405.9" y="239.2" class="st0" width="3.7" height="6.4"/>
			</g>
		</g>
		<g>
			<g>
				<rect x="413.3" y="231.8" class="st0" width="6.4" height="3.7"/>
			</g>
		</g>
		<g>
			<g>
				<rect x="395.7" y="231.8" class="st0" width="6.4" height="3.7"/>
			</g>
		</g>
	</g>
	<g>
		<g>
			<circle class="st1" cx="14.9" cy="168.2" r="4.6"/>
		</g>
	</g>
	<g>
		<g>
			<circle class="st2" cx="385.5" cy="186.2" r="4.6"/>
		</g>
	</g>
	<g>
		<g>
			<circle class="st3" cx="182.7" cy="273.4" r="2.3"/>
		</g>
	</g>
	<g>
		<g>
			<circle class="st4" cx="44.8" cy="228" r="12.6"/>
		</g>
	</g>
	<g>
		<g>
			<g>
				<path class="st5" d="M232.5,116.8c-0.2-1.4-0.4-2.7-0.7-4.1c-0.1-0.7-0.3-1.3-0.4-2c-0.6-2.6-1.4-5.1-2.4-7.4
					c-0.2-0.6-0.5-1.1-0.8-1.7c-2.3-4.8-5.4-8.8-9.4-11.7c-1.1-0.8-2.3-1.6-3.6-2.3c-0.5-0.3-1.1-0.5-1.6-0.8
					c-3.9-1.7-8.4-2.6-13.7-2.6H197h-4.4v-9.5c6-2.3,10.2-8,10.2-14.8V45.2c0,0-12.3-4.3-15-10.4c3,6.5,17.8,11.3,17.8,11.3
					s0-9.1,0-20.7c0-5.1-4.2-6.1-7.7-5.4c-3.3,0.6-5.7,4.9-6,5.5c1.7-3.9-0.3-8.7-4.6-9.8c-5.3-1.4-13.4-0.9-19.7,1.2
					c-12.7,4.2-11.4,14.8-11.4,26c1,0,1.9,0,2.9-0.1c-0.1,0-0.3,0-0.4,0v16.9c0,6.7,4.1,12.3,9.9,14.7V84h-2.7H163
					c-0.8,0-1.6,0-2.4,0.1c-0.3,0-0.5,0-0.8,0.1c-0.5,0-1.1,0.1-1.6,0.2c-0.3,0-0.6,0.1-0.8,0.1c-0.5,0.1-1,0.2-1.5,0.3
					c-0.2,0-0.4,0.1-0.6,0.1c-1.3,0.3-2.5,0.6-3.7,1c0,0-0.1,0-0.2,0l0,0c-1.2,0.4-2.3,0.9-3.4,1.4l0,0c-0.5,0.3-1.1,0.6-1.6,0.9
					c0,0,0,0-0.1,0c-2.3,1.4-4.4,3.1-6.2,5c-0.1,0.1-0.2,0.2-0.3,0.3l-0.1,0.1c-0.1,0.1-0.2,0.2-0.3,0.4c0,0,0,0.1-0.1,0.1
					c-0.2,0.2-0.4,0.4-0.5,0.6c0,0.1-0.1,0.1-0.1,0.2c-0.1,0.2-0.3,0.4-0.4,0.6c-0.1,0.1-0.1,0.1-0.2,0.2c-0.1,0.1-0.2,0.3-0.3,0.4
					c-0.2,0.3-0.5,0.7-0.7,1c0,0,0,0.1-0.1,0.1c0,0.1-0.1,0.1-0.1,0.2c-0.3,0.4-0.5,0.8-0.8,1.2c0,0,0,0,0,0.1
					c-0.1,0.2-0.3,0.4-0.4,0.7l0,0c-0.2,0.5-0.5,0.9-0.7,1.4c0,0,0,0.1-0.1,0.1v0.1c-0.2,0.4-0.4,0.7-0.5,1.1c0,0,0,0.1-0.1,0.1
					c0,0,0,0.1-0.1,0.1c-0.6,1.3-1.1,2.6-1.5,3.9c0,0,0,0,0,0.1l0,0c-0.3,0.8-0.5,1.5-0.7,2.3c0,0.1,0,0.2-0.1,0.3
					c-0.2,0.6-0.3,1.3-0.5,1.9c-0.1,0.3-0.1,0.6-0.2,0.9c-0.1,0.5-0.2,0.9-0.3,1.4c-0.1,0.3-0.1,0.7-0.2,1c-0.1,0.5-0.2,1-0.2,1.5
					c0,0.3-0.1,0.6-0.1,0.9c-0.1,0.8-0.2,1.5-0.3,2.3c0,0.3-0.1,0.6-0.1,0.9c0,0.5-0.1,1-0.1,1.6c0,0.3,0,0.7-0.1,1
					c0,0.6-0.1,1.1-0.1,1.7c0,0.3,0,0.6,0,0.9c0,0.8,0,1.7,0,2.5l0,0v14.9l0,0h7.5l30.3-0.1l19.8-0.1l0,0l0,0h9l29.5-0.1h7.5v-14.5
					C233.3,123.9,233,120.3,232.5,116.8z M187.4,33.5c0,0.2,0.1,0.4,0.1,0.7C187.4,33.9,187.4,33.7,187.4,33.5c0,0-0.4,0.3-1.2,0.9
					C187,33.8,187.4,33.5,187.4,33.5z"/>
			</g>
		</g>
		<g>
			<g>
				<rect x="77.8" y="142.6" class="st5" width="287.3" height="106.3"/>
			</g>
		</g>
		<g>
			<g>
				<path class="st5" d="M287.5,87.2c-0.8,0-1.5,0-2.3-0.1h-45.9l22.8-27.6v-26c0-14,11.4-25.5,25.5-25.5h37.2
					c14,0,25.5,11.4,25.5,25.5v28.2c0,14-11.4,25.5-25.5,25.5L287.5,87.2z"/>
			</g>
		</g>
		<g>
			<g>
				<g>
					<rect x="92.8" y="261.6" class="st3" width="21.8" height="20.3"/>
				</g>
			</g>
			<g>
				<g>
					<rect x="327" y="261.6" class="st3" width="23.2" height="20.3"/>
				</g>
			</g>
		</g>
		<g>
			<g>
				<g>
					<polygon class="st0" points="116.4,283.8 90.9,283.8 90.9,261.6 94.6,261.6 94.6,280.1 112.7,280.1 112.7,261.6 116.4,261.6 
											"/>
				</g>
			</g>
			<g>
				<g>
					<polygon class="st0" points="352.1,283.8 325.2,283.8 325.2,261.6 328.8,261.6 328.8,280.1 348.4,280.1 348.4,261.6 
						352.1,261.6 					"/>
				</g>
			</g>
		</g>
		<g>
			<g>
				<g>
					<g>
						<path class="st0" d="M131.5,142.5h-3.7v-14.9c0-8.2,1.1-15.4,3.1-21.6c0.1-0.2,0.1-0.3,0.2-0.5c0.1-0.5,0.3-0.9,0.5-1.4
							c0-0.1,0.1-0.3,0.2-0.4c0.2-0.5,0.4-0.9,0.6-1.4c0.1-0.2,0.2-0.5,0.3-0.7c0.2-0.4,0.4-0.8,0.6-1.3c0-0.1,0.1-0.2,0.2-0.3
							c0.2-0.4,0.4-0.9,0.7-1.3c0.1-0.3,0.3-0.5,0.4-0.7c0.2-0.4,0.4-0.7,0.6-1c0.1-0.2,0.2-0.4,0.3-0.5c0.2-0.4,0.5-0.8,0.8-1.1
							c0.1-0.1,0.1-0.2,0.2-0.2l0.1-0.1c0.3-0.4,0.5-0.7,0.8-1c0.2-0.2,0.4-0.5,0.6-0.7c0.2-0.2,0.4-0.4,0.6-0.6
							c0.3-0.3,0.6-0.7,0.9-1c0.3-0.4,0.8-0.8,1.2-1.2c0.2-0.2,0.3-0.3,0.5-0.4c0.3-0.3,0.7-0.6,1-0.9c2-1.6,4.3-3,6.9-4.1
							c0.5-0.2,1-0.4,1.6-0.6l0.2-0.1c0.8-0.3,1.4-0.5,2-0.6c3.1-0.9,6.6-1.3,10.3-1.3h2.9v3.7H163c-3.4,0-6.5,0.4-9.3,1.2
							c-0.6,0.2-1.1,0.3-1.6,0.5l-0.2,0.1c-0.5,0.2-1,0.3-1.4,0.5c-2.2,0.9-4.2,2.1-6,3.6c-0.3,0.2-0.6,0.5-0.8,0.7l-0.1,0.1
							c-0.1,0.1-0.3,0.2-0.4,0.4c-0.3,0.3-0.7,0.6-1,1c-0.3,0.3-0.6,0.6-0.9,0.9c-0.2,0.2-0.3,0.4-0.5,0.5c-0.2,0.2-0.3,0.4-0.5,0.6
							l-0.1,0.1c-0.2,0.3-0.4,0.5-0.6,0.8l-0.3,0.4c-0.2,0.3-0.5,0.6-0.7,1c-0.1,0.2-0.2,0.3-0.3,0.4l-0.1,0.2
							c-0.2,0.3-0.3,0.5-0.5,0.8l-0.1,0.1c-0.1,0.1-0.2,0.3-0.3,0.4l-0.1,0.1c-0.2,0.4-0.4,0.8-0.6,1.2l-0.1,0.3
							c-0.2,0.4-0.4,0.8-0.6,1.2c-0.1,0.2-0.2,0.4-0.2,0.5l-0.1,0.1c-0.2,0.4-0.4,0.8-0.5,1.2l-0.2,0.4c-0.2,0.4-0.3,0.8-0.5,1.3
							l-0.1,0.2c0,0.1-0.1,0.2-0.1,0.2c-2,5.8-2.9,12.7-2.9,20.5L131.5,142.5z"/>
					</g>
				</g>
				<g>
					<g>
						<path class="st0" d="M235.1,142.2h-3.7v-14.5c0-36.1-19.7-41.5-31.5-41.5H197v-3.7h2.9c22.3,0,35.2,16.5,35.2,45.2V142.2z"/>
					</g>
				</g>
				<g>
					<g>
						<polygon class="st0" points="174.5,143.3 168.7,133.9 176,102 179.6,102.8 172.6,133.2 177.7,141.4 						"/>
					</g>
				</g>
				<g>
					<g>
						<polygon class="st0" points="188.8,143.3 185.7,141.3 190.6,134 182.2,100.2 177.9,100.2 161.2,94.8 161.2,82.4 182.5,82.4 
							182.5,86.1 164.8,86.1 164.8,92.1 178.4,96.5 185.1,96.5 194.6,134.7 						"/>
					</g>
				</g>
				<g>
					<g>
						<rect x="190.8" y="76" class="st0" width="3.7" height="8.2"/>
					</g>
				</g>
				<g>
					<g>
						<rect x="166.8" y="75.8" class="st0" width="3.7" height="8.4"/>
					</g>
				</g>
				<g>
					<g>
						<path class="st0" d="M186.9,77.7h-12.3c-9.8,0-17.7-7.9-17.7-17.7V41.3l1.8-0.1c17-0.7,27.4-9.1,27.5-9.1l2.4-2l0.5,3.1
							c0.8,4.7,10.8,9.2,14.3,10.4l1.2,0.4v16C204.6,69.7,196.7,77.7,186.9,77.7z M160.6,44.8V60c0,7.7,6.3,14,14,14h12.3
							c7.7,0,14-6.3,14-14V46.6c-3.3-1.3-11.6-5-14.5-10.2C182.6,38.9,173.6,43.8,160.6,44.8z"/>
					</g>
				</g>
				<g>
					<g>
						<path class="st2" d="M174.6,68.3c-4.6,0-8.4-3.8-8.4-8.4V49.7c8-1.3,14.5-3.9,18.9-6.2c3.1,2.9,7,5.2,10.2,6.7v9.7
							c0,4.6-3.8,8.4-8.4,8.4H174.6z"/>
					</g>
				</g>
				<g>
					<g>
						<path class="st0" d="M156.3,44.9h-1.8v-1.8c0-1,0-1.9,0-2.9c-0.1-10.1-0.2-20.6,12.6-24.9c4-1.3,8.7-2.1,13.2-2.1
							c2.8,0,5.4,0.3,7.5,0.9c2.7,0.7,4.8,2.6,5.8,5.2c1.1,2.7,0.9,5.8-0.6,8.2l-4.3,7.2l-0.3,0.2C188,35.3,176,44.9,156.3,44.9z
							 M180.3,16.9c-4.1,0-8.5,0.7-12.1,1.9c-10.3,3.4-10.2,11.4-10.1,21.4c0,0.4,0,0.7,0,1.1c15.9-0.5,26.2-7.7,27.9-9l3.9-6.6
							c0.9-1.5,1-3.4,0.4-5c-0.6-1.5-1.9-2.6-3.4-3C185.1,17.2,182.8,16.9,180.3,16.9z"/>
					</g>
				</g>
				<g>
					<g>
						<path class="st0" d="M207.4,48.7L205,48c-1.9-0.6-18.2-6.1-19.5-14.2l-0.1-0.6l4.9-8.3c0.2-0.5,3-5.7,7.3-6.5
							c0.7-0.1,1.5-0.2,2.2-0.2c4.7,0,7.6,2.9,7.6,7.5V48.7z M189.3,33.8c1.2,3.8,8.6,7.7,14.4,9.9V25.6c0-0.9,0-3.8-4-3.8
							c-0.5,0-1,0-1.5,0.1c-2.2,0.4-4.2,3.6-4.7,4.7L189.3,33.8z"/>
					</g>
				</g>
			</g>
			<g>
				<g>
					<path class="st0" d="M127.8,144.4v-16.7c0-28.7,12.8-45.2,35.2-45.2h36.9c22.3,0,35.2,16.5,35.2,45.2V144L127.8,144.4z
						 M163,86.1c-11.8,0-31.5,5.4-31.5,41.5v13l99.9-0.3v-12.7c0-36.1-19.7-41.5-31.5-41.5H163z"/>
				</g>
			</g>
			<g>
				<g>
					<path class="st1" d="M162,133.8l5.5,8.6l-30.3,0.1v-14.9c0-12.8,2.7-27.5,14.1-33.3l18.6,8.7L162,133.8z"/>
				</g>
			</g>
			<g>
				<g>
					<path class="st1" d="M225.8,127.6v14.6l-29.5,0.1l5.3-7.7l-10.8-39.4v-3.5h9.2C221.3,91.8,225.8,111.3,225.8,127.6z"/>
				</g>
			</g>
		</g>
		<g>
			<g>
				<g>
					<path class="st1" d="M186.2,34.3L186.2,34.3L186.2,34.3z"/>
				</g>
			</g>
		</g>
		<g>
			<g>
				<rect x="84.8" y="149.6" class="st3" width="273.3" height="92.3"/>
			</g>
		</g>
		<g>
			<g>
				<path class="st0" d="M367,250.8H76v-110h291V250.8z M79.7,247.1h283.7V144.4H79.7L79.7,247.1z"/>
			</g>
		</g>
		<g>
			<g>
				<path class="st2" d="M275.9,62.9V32.3c0-5.6,4.6-10.2,10.2-10.2h39.4c5.6,0,10.2,4.6,10.2,10.2v30.6c0,5.6-4.6,10.2-10.2,10.2
					h-39.4C280.5,73.1,275.9,68.6,275.9,62.9z"/>
			</g>
		</g>
		<g>
			<g>
				<path class="st0" d="M324.8,89L324.8,89h-1.2v-3.7h1.2c0.8,0,1.6,0,2.3-0.1l0.4,3.6C326.6,89,325.7,89,324.8,89z M319.9,89h-3.7
					v-3.7h3.7V89z M312.6,89H309v-3.7h3.7V89H312.6z M305.3,89h-3.7v-3.7h3.7V89z M298,89h-3.7v-3.7h3.7V89z M290.6,89h-3.1
					c-0.8,0-1.6,0-2.4-0.1h-1.3v-3.7h1.5c0.7,0.1,1.4,0.1,2.1,0.1h3.1L290.6,89L290.6,89z M280.2,88.9h-3.7v-3.7h3.7V88.9z
					 M272.9,88.9h-3.7v-3.7h3.7V88.9z M265.6,88.9h-3.7v-3.7h3.7V88.9z M258.2,88.9h-3.7v-3.7h3.7V88.9z M250.9,88.9h-3.7v-3.7h3.7
					V88.9z M243.6,88.9h-3.7v-3.7h1.9l-2-1.7l2.3-2.8l2.8,2.3l-1.8,2.2h0.4v3.7H243.6z M331.3,88.2l-0.9-3.6c1.1-0.3,2.2-0.6,3.2-1
					L335,87C333.8,87.5,332.6,87.9,331.3,88.2z M338.5,85.3l-1.9-3.2c1-0.6,1.9-1.2,2.8-1.9l2.3,2.9
					C340.8,83.9,339.7,84.6,338.5,85.3z M344.7,80.4l-2.7-2.5c0.8-0.8,1.5-1.7,2.1-2.6l3,2.1C346.4,78.4,345.5,79.4,344.7,80.4z
					 M247.3,80.3l-2.8-2.3l2.3-2.8l2.8,2.3L247.3,80.3z M252,74.6l-2.8-2.3l2.3-2.8l2.8,2.3L252,74.6z M349.1,74l-3.3-1.7
					c0.5-1,1-2.1,1.3-3.1l3.5,1.2C350.2,71.6,349.7,72.8,349.1,74z M256.6,69l-2.8-2.3l2.3-2.8l2.8,2.3L256.6,69z M351.6,66.6
					L348,66c0.2-1.1,0.3-2.2,0.4-3.4l3.7,0.1C352,64,351.9,65.3,351.6,66.6z M261.3,63.3l-2.8-2.3l2.2-2.7l1.2,1h2.1v0.9L261.3,63.3
					z M352.1,58.9h-3.7v-3.7h3.7V58.9z M263.9,55.6h-3.7v-3.7h3.7V55.6z M352.1,51.6h-3.7V48h3.7V51.6z M263.9,48.3h-3.7v-3.7h3.7
					V48.3z M352.1,44.3h-3.7v-3.7h3.7V44.3z M263.9,41h-3.7v-3.7h3.7V41z M352.1,37h-3.7v-3.7h3.7V37z M260.2,33.6v-0.1
					c0-1.3,0.1-2.5,0.3-3.8l3.6,0.5c-0.1,1.1-0.2,2.2-0.2,3.3L260.2,33.6z M348.1,29.9c-0.2-1.1-0.4-2.2-0.8-3.3l3.5-1.1
					c0.4,1.3,0.7,2.5,0.9,3.8L348.1,29.9z M264.8,26.9l-3.5-1c0.4-1.2,0.8-2.5,1.4-3.7l3.3,1.5C265.5,24.8,265.1,25.8,264.8,26.9z
					 M346.2,23.5c-0.5-1-1-2-1.7-3l3.1-2c0.7,1.1,1.4,2.2,1.9,3.4L346.2,23.5z M267.6,20.8l-3.1-2c0.7-1.1,1.5-2.2,2.4-3.1l2.8,2.4
					C268.9,18.9,268.2,19.8,267.6,20.8z M342.4,17.8c-0.8-0.8-1.6-1.6-2.4-2.4l2.4-2.8c1,0.8,1.9,1.8,2.8,2.7L342.4,17.8z
					 M272.1,15.6l-2.4-2.8c1-0.9,2-1.6,3.1-2.3l2,3.1C273.8,14.2,272.9,14.9,272.1,15.6z M337.2,13.4c-1-0.6-2-1.1-3-1.6l1.5-3.4
					c1.2,0.5,2.4,1.1,3.5,1.8L337.2,13.4z M277.8,12l-1.5-3.3c1.2-0.5,2.4-1,3.7-1.4l1,3.5C279.9,11.1,278.8,11.5,277.8,12z
					 M331,10.7c-1.1-0.3-2.2-0.5-3.3-0.7l0.5-3.6c1.3,0.2,2.6,0.4,3.8,0.8L331,10.7z M284.3,10.1l-0.5-3.6c1.2-0.2,2.5-0.3,3.8-0.3
					h0.1v3.7h-0.1C286.4,9.9,285.3,10,284.3,10.1z M324.3,9.9h-3.7V6.2h3.7V9.9z M317,9.9h-3.7V6.2h3.7V9.9z M309.6,9.9H306V6.2h3.7
					v3.7H309.6z M302.3,9.9h-3.7V6.2h3.7V9.9z M295,9.9h-3.7V6.2h3.7V9.9z"/>
			</g>
		</g>
		<g>
			<g>
				<path class="st0" d="M324.1,82h-36.3c-0.7,0-1.4,0-2-0.1h-36l17.4-21.2V33.8c0-11.4,9.2-20.6,20.6-20.6h36.3
					c11.4,0,20.6,9.2,20.6,20.6v27.5C344.7,72.7,335.4,82,324.1,82z M257.4,78.2h28.5c0.6,0.1,1.2,0.1,1.8,0.1H324
					c9.3,0,16.9-7.6,16.9-16.9V33.9c0-9.3-7.6-16.9-16.9-16.9h-36.3c-9.3,0-16.9,7.6-16.9,16.9v28.2L257.4,78.2z"/>
			</g>
		</g>
		<g>
			<g>
				<circle class="st1" cx="220.8" cy="195.8" r="33.5"/>
			</g>
		</g>
		<g>
			<g>
				<path class="st3" d="M231.5,193.4c1.8-0.3,3.3-1.2,4.6-2.4c1.6-1.6,2.6-3.8,2.6-6.2c0-4.8-3.9-8.7-8.7-8.7h-3.6v-16.7h-5.2v16.7
					h-3.3l0,0v-16.7h-5.2v16.7h-4.2l0,0h-6.3v5.6h3.9c0,0,2.4-0.3,2.4,2.4v22.8c0,2.7-2.4,2.4-2.4,2.4H202v5.6h6.3l0,0h4.2v17.3h5.2
					v-17.3l0,0v-0.1h3.3v17.3h5.2v-17.3h5.1c2.9,0,5.6-1.2,7.5-3.1s3.1-4.6,3.1-7.5C242,198.3,237.3,193.5,231.5,193.4z
					 M217.8,182.1h5.7c2.8,0,5.1,2.3,5.1,5.1c0,1.4-0.6,2.7-1.5,3.6s-2.2,1.5-3.6,1.5h-5.7V182.1z M229.8,207.2
					c-1,1-2.4,1.6-3.9,1.6h-8.1v-11.1h8.1c3.1,0,5.6,2.5,5.6,5.6C231.4,204.8,230.8,206.2,229.8,207.2z"/>
			</g>
		</g>
		<g>
			<g>
				<polygon class="st0" points="299.2,58.8 289.3,48.6 291.9,46.1 299.5,53.8 319.5,37.5 321.8,40.3 				"/>
			</g>
		</g>
	</g>
	<g>
		<g>
			<path class="st0" d="M253.1,241.9l-2.3-2.9c0.9-0.7,1.8-1.5,2.7-2.3l2.5,2.7C255.1,240.3,254.1,241.1,253.1,241.9z M258.7,236.8
				l-2.6-2.6c0.8-0.8,1.6-1.7,2.4-2.6l2.8,2.4C260.5,235,259.6,235.9,258.7,236.8z M263.6,231.1l-2.9-2.2c0.7-0.9,1.4-1.9,2-2.9
				l3.1,2C265.1,229,264.4,230.1,263.6,231.1z M267.8,224.8l-3.2-1.8c0.6-1,1.1-2.1,1.7-3.1l3.3,1.6
				C269,222.6,268.4,223.7,267.8,224.8z M271.1,218l-3.4-1.4c0.4-1.1,0.9-2.2,1.2-3.3l3.5,1.2C272,215.6,271.6,216.8,271.1,218z
				 M273.5,210.8l-3.5-0.9c0.3-1.1,0.6-2.3,0.8-3.4l3.6,0.7C274.1,208.4,273.8,209.6,273.5,210.8z M275,203.4l-3.6-0.5
				c0.2-1.2,0.3-2.4,0.4-3.5l3.7,0.2C275.3,200.9,275.2,202.2,275,203.4z M275.5,195.9h-3.7v-0.3c0-0.6,0-1.3,0-1.9
				c0-0.4,0-0.9-0.1-1.3l3.7-0.2c0,0.5,0,0.9,0.1,1.4c0,0.7,0,1.4,0,2.1V195.9z M271.4,188.8c-0.1-1.2-0.3-2.3-0.5-3.5l3.6-0.7
				c0.2,1.2,0.4,2.5,0.6,3.7L271.4,188.8z M270.1,181.8c-0.3-1.1-0.6-2.3-1-3.4l3.5-1.1c0.4,1.2,0.7,2.4,1.1,3.6L270.1,181.8z
				 M267.9,175.1c-0.4-1.1-0.9-2.2-1.4-3.2l3.3-1.6c0.5,1.1,1,2.3,1.5,3.5L267.9,175.1z M264.9,168.7c-0.6-1-1.2-2.1-1.8-3l3.1-2
				c0.7,1.1,1.3,2.1,1.9,3.2L264.9,168.7z M261.1,162.7c-0.7-0.9-1.4-1.9-2.2-2.8l2.8-2.4c0.8,1,1.6,2,2.3,3L261.1,162.7z
				 M256.5,157.3c-0.8-0.8-1.7-1.7-2.5-2.5l2.5-2.7c0.9,0.9,1.8,1.7,2.7,2.6L256.5,157.3z"/>
		</g>
	</g>
	<g>
		<g>
			<path class="st0" d="M187.4,241.9c-1-0.8-2-1.6-2.9-2.4l2.5-2.7c0.9,0.8,1.8,1.6,2.7,2.3L187.4,241.9z M181.8,236.8
				c-0.9-0.9-1.7-1.8-2.5-2.8l2.8-2.4c0.8,0.9,1.6,1.8,2.4,2.6L181.8,236.8z M176.9,231.1c-0.8-1-1.5-2-2.2-3.1l3.1-2
				c0.6,1,1.3,2,2,2.9L176.9,231.1z M172.8,224.8c-0.6-1.1-1.2-2.2-1.8-3.3l3.3-1.6c0.5,1.1,1.1,2.1,1.7,3.1L172.8,224.8z
				 M169.4,218c-0.5-1.2-0.9-2.4-1.3-3.5l3.5-1.2c0.4,1.1,0.8,2.2,1.2,3.3L169.4,218z M167,210.8c-0.3-1.2-0.6-2.4-0.9-3.7l3.6-0.7
				c0.2,1.2,0.5,2.3,0.8,3.4L167,210.8z M165.6,203.4c-0.2-1.2-0.3-2.5-0.4-3.8l3.7-0.3c0.1,1.2,0.2,2.4,0.4,3.5L165.6,203.4z
				 M168.7,195.9H165v-0.3c0-0.7,0-1.4,0-2.1c0-0.5,0-0.9,0.1-1.4l3.7,0.2c0,0.4,0,0.9-0.1,1.3c0,0.7,0,1.3,0,2V195.9z M169.1,188.8
				l-3.6-0.4c0.2-1.2,0.3-2.5,0.6-3.7l3.6,0.7C169.4,186.5,169.3,187.6,169.1,188.8z M170.4,181.8l-3.5-0.9c0.3-1.2,0.7-2.4,1.1-3.6
				l3.5,1.1C171,179.6,170.7,180.7,170.4,181.8z M172.6,175.1l-3.4-1.4c0.5-1.2,1-2.3,1.5-3.5l3.3,1.6
				C173.5,172.9,173,174,172.6,175.1z M175.6,168.7l-3.2-1.8c0.6-1.1,1.3-2.2,1.9-3.2l3.1,2C176.8,166.7,176.2,167.7,175.6,168.7z
				 M179.5,162.7l-2.9-2.2c0.7-1,1.5-2,2.3-3l2.8,2.4C180.9,160.9,180.2,161.8,179.5,162.7z M184,157.3l-2.6-2.5
				c0.9-0.9,1.8-1.8,2.7-2.6l2.5,2.7C185.7,155.6,184.8,156.5,184,157.3z"/>
		</g>
	</g>
</g>
</svg>
